# Blender 3.4.1
# www.blender.org
o Cylinder
v 0.000000 -1.000000 -1.000000
v 0.000000 1.000000 -1.000000
v 0.587785 -1.000000 -0.809017
v 0.587785 1.000000 -0.809017
v 0.951057 -1.000000 -0.309017
v 0.951057 1.000000 -0.309017
v 0.951057 -1.000000 0.309017
v 0.951057 1.000000 0.309017
v 0.587785 -1.000000 0.809017
v 0.587785 1.000000 0.809017
v 0.000000 -1.000000 1.000000
v 0.000000 1.000000 1.000000
v -0.587785 -1.000000 0.809017
v -0.587785 1.000000 0.809017
v -0.951057 -1.000000 0.309017
v -0.951057 1.000000 0.309017
v -0.951057 -1.000000 -0.309017
v -0.951057 1.000000 -0.309017
v -0.587785 -1.000000 -0.809017
v -0.587785 1.000000 -0.809017
vn 0.3090 -0.0000 -0.9511
vn 0.8090 -0.0000 -0.5878
vn 1.0000 -0.0000 -0.0000
vn 0.8090 -0.0000 0.5878
vn 0.3090 -0.0000 0.9511
vn -0.3090 -0.0000 0.9511
vn -0.8090 -0.0000 0.5878
vn -1.0000 -0.0000 -0.0000
vn -0.0000 1.0000 -0.0000
vn -0.8090 -0.0000 -0.5878
vn -0.3090 -0.0000 -0.9511
vn -0.0000 -1.0000 -0.0000
s 0
f 2//1 3//1 1//1
f 4//2 5//2 3//2
f 6//3 7//3 5//3
f 8//4 9//4 7//4
f 10//5 11//5 9//5
f 12//6 13//6 11//6
f 14//7 15//7 13//7
f 16//8 17//8 15//8
f 18//9 10//9 6//9
f 18//10 19//10 17//10
f 20//11 1//11 19//11
f 7//12 15//12 19//12
f 2//1 4//1 3//1
f 4//2 6//2 5//2
f 6//3 8//3 7//3
f 8//4 10//4 9//4
f 10//5 12//5 11//5
f 12//6 14//6 13//6
f 14//7 16//7 15//7
f 16//8 18//8 17//8
f 6//9 4//9 2//9
f 2//9 20//9 18//9
f 18//9 16//9 14//9
f 14//9 12//9 10//9
f 10//9 8//9 6//9
f 6//9 2//9 18//9
f 18//9 14//9 10//9
f 18//10 20//10 19//10
f 20//11 2//11 1//11
f 19//12 1//12 3//12
f 3//12 5//12 7//12
f 7//12 9//12 11//12
f 11//12 13//12 15//12
f 15//12 17//12 19//12
f 19//12 3//12 7//12
f 7//12 11//12 15//12
